HIERARCHY
ROOT Hips
{
	OFFSET 0.000000 0.000000 0.000000
	CHANNELS 6 Xposition Yposition Zposition Zrotation Yrotation Xrotation 
	JOINT LHipJoint
	{
		OFFSET 0.000000 0.000000 0.000000
		CHANNELS 3 Zrotation Yrotation Xrotation
		JOINT LeftUpLeg
		{
			OFFSET 1.363060 -1.794630 0.839290
			CHANNELS 3 Zrotation Yrotation Xrotation
			JOINT LeftLeg
			{
				OFFSET 2.448110 -6.726130 0.000000
				CHANNELS 3 Zrotation Yrotation Xrotation
				JOINT LeftFoot
				{
					OFFSET 2.562200 -7.039590 0.000000
					CHANNELS 3 Zrotation Yrotation Xrotation
					JOINT LeftToeBase
					{
						OFFSET 0.157640 -0.433110 2.322550
						CHANNELS 3 Zrotation Yrotation Xrotation
						End Site
						{
							OFFSET 0.000000 0.000000 0.000000
						}
					}
				}
			}
		}
	}
	JOINT RHipJoint
	{
		OFFSET 0.000000 0.000000 0.000000
		CHANNELS 3 Zrotation Yrotation Xrotation
		JOINT RightUpLeg
		{
			OFFSET -1.305520 -1.794630 0.839290
			CHANNELS 3 Zrotation Yrotation Xrotation
			JOINT RightLeg
			{
				OFFSET -2.542530 -6.985550 0.000000
				CHANNELS 3 Zrotation Yrotation Xrotation
				JOINT RightFoot
				{
					OFFSET -2.568260 -7.056230 0.000000
					CHANNELS 3 Zrotation Yrotation Xrotation
					JOINT RightToeBase
					{
						OFFSET -0.164730 -0.452590 2.363150
						CHANNELS 3 Zrotation Yrotation Xrotation
						End Site
						{
							OFFSET 0.000000 0.000000 0.000000
						}
					}
				}
			}
		}
	}
	JOINT LowerBack
	{
		OFFSET 0.000000 0.000000 0.000000
		CHANNELS 3 Zrotation Yrotation Xrotation
		JOINT Spine
		{
			OFFSET 0.028270 2.035590 -0.193380
			CHANNELS 3 Zrotation Yrotation Xrotation
			JOINT Spine1
			{
				OFFSET 0.056720 2.048850 -0.042750
				CHANNELS 3 Zrotation Yrotation Xrotation
				JOINT Neck
				{
					OFFSET 0.000000 0.000000 0.000000
					CHANNELS 3 Zrotation Yrotation Xrotation
					JOINT Neck1
					{
						OFFSET -0.054170 1.746240 0.172020
						CHANNELS 3 Zrotation Yrotation Xrotation
						JOINT Head
						{
							OFFSET 0.104070 1.761360 -0.123970
							CHANNELS 3 Zrotation Yrotation Xrotation
							End Site
							{
								OFFSET 0.000000 0.000000 0.000000
							}
						}
					}
				}
				JOINT LeftShoulder
				{
					OFFSET 0.000000 0.000000 0.000000
					CHANNELS 3 Zrotation Yrotation Xrotation
					JOINT LeftArm
					{
						OFFSET 3.362410 1.200890 -0.311210
						CHANNELS 3 Zrotation Yrotation Xrotation
						JOINT LeftForeArm
						{
							OFFSET 4.983000 -0.000000 -0.000000
							CHANNELS 3 Zrotation Yrotation Xrotation
							JOINT LeftHand
							{
								OFFSET 3.483560 -0.000000 -0.000000
								CHANNELS 3 Zrotation Yrotation Xrotation
								JOINT LeftFingerBase
								{
									OFFSET 0.000000 0.000000 0.000000
									CHANNELS 3 Zrotation Yrotation Xrotation
									JOINT LeftHandIndex1
									{
										OFFSET 0.715260 -0.000000 -0.000000
										CHANNELS 3 Zrotation Yrotation Xrotation
										End Site
										{
											OFFSET 0.000000 0.000000 0.000000
										}
									}
								}
								JOINT LThumb
								{
									OFFSET 0.000000 0.000000 0.000000
									CHANNELS 3 Zrotation Yrotation Xrotation
									End Site
									{
										OFFSET 0.000000 0.000000 0.000000
									}
								}
							}
						}
					}
				}
				JOINT RightShoulder
				{
					OFFSET 0.000000 0.000000 0.000000
					CHANNELS 3 Zrotation Yrotation Xrotation
					JOINT RightArm
					{
						OFFSET -3.136600 1.374050 -0.404650
						CHANNELS 3 Zrotation Yrotation Xrotation
						JOINT RightForeArm
						{
							OFFSET -5.241900 -0.000000 -0.000000
							CHANNELS 3 Zrotation Yrotation Xrotation
							JOINT RightHand
							{
								OFFSET -3.444170 -0.000000 -0.000000
								CHANNELS 3 Zrotation Yrotation Xrotation
								JOINT RightFingerBase
								{
									OFFSET 0.000000 0.000000 0.000000
									CHANNELS 3 Zrotation Yrotation Xrotation
									JOINT RightHandIndex1
									{
										OFFSET -0.622530 -0.000000 -0.000000
										CHANNELS 3 Zrotation Yrotation Xrotation
										End Site
										{
											OFFSET 0.000000 0.000000 0.000000
										}
									}
								}
								JOINT RThumb
								{
									OFFSET 0.000000 0.000000 0.000000
									CHANNELS 3 Zrotation Yrotation Xrotation
									End Site
									{
										OFFSET 0.000000 0.000000 0.000000
									}
								}
							}
						}
					}
				}
			}
		}
	}
}
MOTION
Frames: 11
Frame Time: 0.008333
1.008194 17.400965 -9.391461 5.374241 15.007022 8.243106 -5.753540 -0.755650 3.407971 -15.667403 1.805350 11.446620 -1.060833 3.875781 9.067771 -1.112958 7.765629 4.750506 2.050200 -8.969800 -25.701000 3.648435 2.375944 -2.413223 8.470010 2.727366 -38.288458 -5.492425 -14.670469 42.918507 4.835046 -19.557339 -0.157528 -0.004600 0.438400 -1.204600 -8.608051 -0.438944 4.963131 0.588621 -1.144796 -2.332003 4.932870 -0.545668 -3.367874 -0.992751 -0.771504 -18.045907 7.280637 -1.450437 2.942406 -0.352100 -0.684700 6.044600 3.742865 -1.627298 0.100455 -92.687574 2.865679 15.342020 11.616327 -19.314575 -1.876925 0.246846 0.305910 1.848034 13.257683 1.975415 0.382600 -7.125000 0.000000 0.000000 -10.823200 31.560700 3.614100 -3.064695 1.243914 0.027640 89.332703 -0.114480 16.778915 -13.485918 22.618380 -2.695593 0.084138 -0.480653 -4.159040 -15.296188 -2.173564 0.458100 7.125000 0.000000 0.000000 8.983100 -31.630600 2.969600 
0.999002 17.414353 -9.193739 5.346162 14.807106 8.104538 -5.725035 -0.752628 3.401630 -15.406203 1.774101 11.442455 -0.981855 4.305872 10.248787 -0.975358 7.441108 5.891557 2.238300 -9.345600 -26.882600 3.656324 2.362081 -2.366003 8.781104 2.498233 -37.848446 -5.584246 -14.776309 43.346711 4.732548 -19.198790 -0.228526 -0.009000 0.613300 -1.685200 -8.516965 -0.437455 4.986650 0.583357 -1.142929 -2.379203 4.868299 -0.541021 -3.448976 -0.973933 -0.705473 -18.168064 7.335093 -1.363476 2.879052 -0.329800 -0.641200 6.045500 3.754133 -1.637409 0.098418 -92.813027 3.346303 13.827081 11.139640 -18.603466 -1.734478 0.244518 0.292299 3.225257 12.835150 1.936175 0.363200 -7.125000 0.000000 0.000000 -11.145700 31.519700 3.736700 -3.072459 1.259403 0.031846 89.520433 -0.342947 16.479111 -13.296495 22.370210 -2.634250 0.080617 -0.480987 -3.974999 -15.460952 -2.234490 0.480000 7.125000 0.000000 0.000000 8.860200 -31.696300 2.913900 
0.991309 17.437432 -8.994218 5.273036 14.651691 7.937025 -5.697473 -0.757218 3.388891 -15.060484 1.807681 11.286609 -0.881090 4.791400 11.601277 -0.780304 6.971669 7.327511 2.422900 -9.696400 -27.999000 3.672401 2.349836 -2.306842 9.161717 2.126598 -37.284916 -5.610233 -14.825274 43.541902 4.626545 -18.814666 -0.340496 -0.019400 0.899000 -2.470900 -8.342122 -0.453558 5.003744 0.583740 -1.158033 -2.416294 4.762808 -0.546960 -3.511302 -0.946383 -0.630374 -18.275399 7.358280 -1.269415 2.775719 -0.318300 -0.599400 6.029900 3.765443 -1.651228 0.097995 -92.934209 3.838830 12.270468 10.708880 -17.953554 -1.609828 0.240782 0.279715 4.577486 12.394886 1.918322 0.348300 -7.125000 0.000000 0.000000 -11.483800 31.499300 3.859800 -3.078791 1.271428 0.036210 89.692491 -0.584265 16.289279 -13.110664 22.126628 -2.574878 0.077555 -0.481703 -3.865727 -15.649612 -2.323891 0.511000 7.125000 0.000000 0.000000 8.721200 -31.791500 2.847000 
0.986214 17.470802 -8.794798 5.131482 14.523569 7.762592 -5.674341 -0.770673 3.365426 -14.643988 1.793029 10.959228 -0.754423 5.345002 13.150752 -0.565369 6.523613 9.066540 2.596300 -10.011000 -29.012400 3.698713 2.340038 -2.234931 9.621916 1.622227 -36.619700 -5.561574 -14.809844 43.470610 4.508116 -18.382911 -0.426853 -0.035600 1.217600 -3.347800 -8.043230 -0.479380 4.994206 0.588500 -1.176075 -2.449238 4.591866 -0.557217 -3.553867 -0.907091 -0.549984 -18.357819 7.360729 -1.174058 2.639095 -0.315100 -0.560400 5.998500 3.776857 -1.667404 0.098664 -93.040096 4.320783 10.722212 10.311352 -17.348203 -1.498648 0.236048 0.269446 5.878346 11.955133 1.965523 0.346900 -7.125000 0.000000 0.000000 -11.829200 31.542200 3.967800 -3.084164 1.280683 0.040869 89.849004 -0.834127 16.217517 -12.938666 21.901380 -2.520666 0.075600 -0.482910 -3.851616 -15.840803 -2.465790 0.557300 7.125000 0.000000 0.000000 8.585200 -31.940200 2.770700 
0.982917 17.515861 -8.595976 4.904435 14.439153 7.598192 -5.656562 -0.793240 3.329655 -14.134049 1.707733 10.426068 -0.596655 5.964649 14.896357 -0.325186 6.112028 11.138708 2.730800 -10.246000 -29.777000 3.736997 2.332872 -2.149794 10.168490 1.015027 -35.861839 -5.436555 -14.726278 43.116170 4.384506 -17.938875 -0.429396 -0.055100 1.514700 -4.166300 -7.620421 -0.520081 4.952121 0.607231 -1.203963 -2.491230 4.369517 -0.573979 -3.589511 -0.860922 -0.475260 -18.403712 7.346846 -1.089925 2.499345 -0.318900 -0.528200 5.959700 3.787846 -1.684148 0.099979 -93.135244 4.803626 9.224128 9.951581 -16.795589 -1.401108 0.230834 0.262174 7.117169 11.535414 2.093062 0.360800 -7.125000 0.000000 0.000000 -12.169400 31.662600 4.050500 -3.088642 1.289170 0.045784 89.984475 -1.101299 16.250540 -12.775266 21.687205 -2.469144 0.074203 -0.484041 -3.877394 -16.007072 -2.620828 0.607600 7.125000 0.000000 0.000000 8.469900 -32.102100 2.699400 
0.981118 17.572810 -8.399453 4.596003 14.399567 7.450472 -5.644341 -0.825286 3.279972 -13.534677 1.563700 9.672216 -0.402581 6.640810 16.819870 -0.048061 5.733963 13.568527 2.784400 -10.337600 -30.077100 3.787586 2.328655 -2.051811 10.784180 0.343603 -35.020663 -5.239577 -14.574760 42.485601 4.258796 -17.498871 -0.314612 -0.075700 1.774600 -4.883100 -7.085241 -0.571238 4.893513 0.641518 -1.237499 -2.545734 4.106145 -0.594435 -3.631756 -0.824852 -0.416936 -18.445663 7.338291 -1.024109 2.380316 -0.320500 -0.503400 5.927400 3.798332 -1.698009 0.100240 -93.219153 5.248860 7.759471 9.600560 -16.252539 -1.309178 0.226220 0.254781 8.344784 11.146109 2.203777 0.370700 -7.125000 0.000000 0.000000 -12.484600 31.766700 4.127800 -3.092438 1.300197 0.051536 90.089817 -1.395011 16.392369 -12.635814 21.504709 -2.425082 0.073536 -0.484903 -3.953733 -16.120233 -2.764040 0.653100 7.125000 0.000000 0.000000 8.395500 -32.251100 2.644800 
0.979720 17.641149 -8.205727 4.229222 14.439178 7.323290 -5.636024 -0.866148 3.214063 -12.863880 1.338157 8.727021 -0.169448 7.359947 18.889966 0.272438 5.382279 16.292667 2.720900 -10.228900 -29.721400 3.849000 2.326113 -1.941318 11.434840 -0.361220 -34.100913 -4.982451 -14.360226 41.607748 4.138824 -17.094581 -0.072875 -0.097600 2.014600 -5.545900 -6.482308 -0.636652 4.814048 0.694540 -1.284649 -2.607436 3.830452 -0.621978 -3.670232 -0.767677 -0.371658 -18.462279 7.303164 -0.982375 2.275191 -0.336300 -0.490800 5.895000 3.809242 -1.711140 0.099567 -93.290841 5.625337 6.329639 9.245916 -15.701146 -1.219383 0.222073 0.247298 9.582763 10.777584 2.311275 0.379200 -7.125000 0.000000 0.000000 -12.783900 31.867800 4.199300 -3.094923 1.310500 0.057557 90.162440 -1.700635 16.580705 -12.515198 21.345919 -2.385946 0.073381 -0.484920 -4.014600 -16.142305 -2.878962 0.687400 7.125000 0.000000 0.000000 8.390400 -32.370000 2.618900 
0.978021 17.719378 -8.015797 3.843390 14.543720 7.216713 -5.630536 -0.916056 3.130033 -12.173099 1.033865 7.631539 0.104656 8.108093 21.077163 0.641180 5.022608 19.203788 2.466700 -9.777200 -28.258200 3.919593 2.324440 -1.820019 12.074698 -1.045336 -33.108468 -4.682103 -14.091354 40.530019 4.035142 -16.765867 0.294831 -0.121700 2.249200 -6.195000 -5.870465 -0.703787 4.732526 0.761313 -1.333869 -2.681495 3.569801 -0.648811 -3.723272 -0.728167 -0.348186 -18.459153 7.274979 -0.965355 2.178650 -0.349100 -0.489600 5.862500 3.819949 -1.721682 0.096933 -93.353157 5.923509 4.927726 8.879098 -15.128730 -1.129916 0.217658 0.240316 10.884815 10.398056 2.451461 0.391700 -7.125000 0.000000 0.000000 -13.096900 31.999800 4.264200 -3.096404 1.322304 0.063924 90.201542 -2.032330 16.745522 -12.416937 21.214904 -2.352091 0.073478 -0.483283 -4.011650 -16.010887 -2.918234 0.693300 7.125000 0.000000 0.000000 8.499900 -32.408900 2.645700 
0.975723 17.806001 -7.830864 3.482571 14.701350 7.130167 -5.624315 -0.976653 3.024779 -11.524617 0.650144 6.435851 0.418770 8.872165 23.362124 1.036484 4.532607 21.909534 2.112200 -9.096000 -26.096100 3.995828 2.323020 -1.690158 12.654195 -1.674073 -32.056649 -4.357966 -13.779364 39.310451 3.953097 -16.534330 0.780862 -0.149800 2.493900 -6.872800 -5.301817 -0.766321 4.660553 0.836548 -1.380196 -2.757276 3.346237 -0.672286 -3.781753 -0.725478 -0.355401 -18.475543 7.266343 -0.977403 2.112776 -0.351900 -0.500300 5.843900 3.829812 -1.726404 0.091768 -93.410776 6.125589 3.579670 8.510166 -14.550483 -1.043353 0.212572 0.233990 12.237461 9.995454 2.621220 0.406400 -7.125000 0.000000 0.000000 -13.432700 32.159100 4.325900 -3.097102 1.337416 0.070591 90.199213 -2.364977 16.855991 -12.338789 21.108783 -2.322992 0.073492 -0.479856 -3.933560 -15.738513 -2.866225 0.667500 7.125000 0.000000 0.000000 8.712100 -32.352500 2.725000 
0.973126 17.899217 -7.651924 3.160569 14.865424 7.067464 -5.615324 -1.047407 2.896327 -10.953074 0.229247 5.163422 0.779028 9.645858 25.728820 1.388137 3.997252 24.105865 1.739500 -8.301000 -23.632200 4.075353 2.320825 -1.555146 13.152611 -2.190292 -30.967754 -4.028120 -13.437862 38.010868 3.890923 -16.398760 1.389072 -0.184600 2.767000 -7.630900 -4.788000 -0.811486 4.600999 0.909997 -1.407378 -2.834169 3.150459 -0.684314 -3.847103 -0.743134 -0.396051 -18.528999 7.275306 -1.025736 2.081435 -0.349200 -0.525400 5.843200 3.838262 -1.724976 0.084501 -93.454718 6.246178 2.330815 8.159980 -13.998434 -0.963930 0.205972 0.228321 13.577368 9.547940 2.795315 0.417500 -7.125000 0.000000 0.000000 -13.804600 32.320400 4.396500 -3.097304 1.356281 0.077496 90.171851 -2.697075 16.890270 -12.288623 21.038618 -2.301416 0.073697 -0.475039 -3.779296 -15.342743 -2.751048 0.620000 7.125000 0.000000 0.000000 9.014900 -32.229800 2.848700 
0.970628 17.996829 -7.479379 2.875002 14.995814 7.021980 -5.600801 -1.126022 2.744868 -10.468208 -0.181548 3.835392 1.192582 10.422878 28.162011 1.626984 3.499365 25.507601 1.453600 -7.620700 -21.567800 4.155581 2.316521 -1.418002 13.572847 -2.559981 -29.860079 -3.706916 -13.080799 36.687737 3.846148 -16.353341 2.104931 -0.227900 3.072800 -8.481600 -4.327466 -0.825368 4.553027 0.980417 -1.396275 -2.908477 2.978865 -0.675428 -3.915650 -0.802959 -0.475022 -18.601282 7.311560 -1.112314 2.059074 -0.334200 -0.567700 5.849100 3.845020 -1.718520 0.075808 -93.493331 6.302805 1.212682 7.845638 -13.500058 -0.894865 0.197982 0.223673 14.907518 9.066016 2.975858 0.425200 -7.125000 0.000000 0.000000 -14.204400 32.485400 4.472500 -3.096944 1.377527 0.084338 90.119678 -3.026333 16.840475 -12.265563 21.004082 -2.287737 0.073807 -0.469127 -3.576730 -14.863936 -2.568229 0.553200 7.125000 0.000000 0.000000 9.375400 -32.037900 3.009200 
